<?xml version="1.0" encoding="utf-8"?>
<!-- Generator: Adobe Illustrator 25.0.1, SVG Export Plug-In . SVG Version: 6.00 Build 0)  -->
<svg version="1.1" id="Capa_1" xmlns="http://www.w3.org/2000/svg" xmlns:xlink="http://www.w3.org/1999/xlink" x="0px" y="0px"
	 viewBox="0 0 374 317" style="enable-background:new 0 0 374 317;" xml:space="preserve">
<style type="text/css">
	.st0{fill:#2CA8DF;}
	.st1{fill:#B6D9E9;}
	.st2{fill:#FFFFFF;}
</style>
<g>
	<circle class="st0" cx="186.5" cy="158.5" r="142.5"/>
</g>
<path class="st1" d="M142.6,243.8l21-7.9l13.8,12.1c8.1,7.1,20.7,1.3,20.7-9.4v-94.9h39.2v94.7c0,30.1-24.4,54.5-54.5,54.5h0
	c-10.2,0-19.9-4.2-26.9-11.7l-17.7-19C132.8,256.3,135,246.7,142.6,243.8z"/>
<polygon class="st2" points="129,47 129,216.6 170.8,216.6 170.8,150.5 237.3,150.5 237.3,115.3 170.5,115.3 170.5,81.6 244.2,81.6 
	244.2,47 "/>
</svg>
